<!-- icon666.com - MILLIONS vector ICONS FREE --><svg id="Capa_1" enable-background="new 0 0 512.312 512.312" viewBox="0 0 512.312 512.312" xmlns="http://www.w3.org/2000/svg"><g><g><g><path d="m153.113 34.72c-15.679-17.835-40.001-23.332-60.985-15.966-4.1 1.439-8.649.782-12.085-1.877-8.446-6.537-19.28-10.134-30.977-9.243-22.407 1.709-40.279 20.137-41.355 42.584-.566 11.81 3.434 22.673 10.384 30.988 3.234 3.869 4.02 9.307 1.884 13.876-4.798 10.263-5.613 22.381-1.271 33.838 8.112 21.403 31.841 32.958 53.676 26.091 11.062-3.479 19.674-10.89 24.887-20.15 2.383-4.233 6.834-6.855 11.69-6.695 14.84.489 29.884-4.85 41.404-16.199 21.121-20.808 22.325-54.978 2.748-77.247z" fill="#e9efff"></path></g><g><path d="m77.674 128.92c-4.342-11.457-3.527-23.575 1.271-33.838 2.136-4.568 1.35-10.006-1.884-13.876-6.95-8.315-10.95-19.178-10.384-30.988.609-12.694 6.591-24.099 15.724-31.926-.824-.385-1.62-.844-2.358-1.415-8.446-6.537-19.28-10.134-30.977-9.243-22.407 1.709-40.279 20.137-41.355 42.584-.566 11.81 3.434 22.673 10.384 30.988 3.234 3.869 4.02 9.307 1.884 13.876-4.798 10.263-5.614 22.381-1.271 33.838 8.112 21.403 31.841 32.958 53.676 26.091 6.386-2.008 11.949-5.333 16.52-9.562-4.856-4.443-8.766-10.028-11.23-16.529z" fill="#dae2fe"></path></g><g><path d="m474.381 35.831c-5.078-2.263-10.298-3.628-15.499-4.182-3.418-.364-6.456-2.347-8.294-5.251-7.19-11.355-19.857-18.898-34.292-18.898-10.406 0-19.894 3.92-27.074 10.361-4.283 3.843-10.727 4.142-15.13.437-4.478-3.768-9.762-6.747-15.718-8.642-22.7-7.223-47.511 4.354-56.542 26.397-6.518 15.91-3.512 33.148 6.159 45.684 2.686 3.481 3.049 8.203 1.089 12.138-7.919 15.901-9.861 34.89-3.65 53.434 10.926 32.62 44.574 52.502 78.432 46.411 9.152-1.646 17.514-4.975 24.862-9.588 3.998-2.51 9.165-2.344 13.016.386 6.661 4.721 14.826 7.514 23.738 7.501 20.288-.03 37.701-15.3 40.376-35.412 1.017-7.647-.121-15.016-2.917-21.542-1.979-4.62-.546-9.994 3.318-13.208 7.705-6.408 13.647-15.177 16.579-25.751 6.717-24.209-5.505-50.048-28.453-60.275z" fill="#e9efff"></path></g><g><g><path d="m378.764 147.31c-6.211-18.543-4.27-37.533 3.65-53.434 1.96-3.936 1.597-8.657-1.089-12.138-9.671-12.536-12.677-29.775-6.159-45.684 2.65-6.469 6.667-12.027 11.583-16.483-4.043 2.108-9.038 1.773-12.656-1.272-4.478-3.768-9.762-6.747-15.718-8.643-22.7-7.223-47.511 4.354-56.542 26.397-6.518 15.91-3.512 33.148 6.159 45.684 2.686 3.481 3.049 8.203 1.089 12.138-7.919 15.901-9.861 34.89-3.65 53.434 10.926 32.62 44.574 52.502 78.432 46.411 8.987-1.617 17.206-4.863 24.457-9.347-13.507-8.314-24.233-21.17-29.556-37.063z" fill="#dae2fe"></path></g></g><g><path d="m328.253 280.221c-6.606-9.408-16.257-15.235-26.594-17.2-6.184-1.176-11.144-5.656-13.351-11.551-4.83-12.899-14.365-24.067-27.674-30.68-10.796-5.365-22.482-6.937-33.556-5.237-5.45.837-10.949-.738-15.102-4.366-14.016-12.245-32.356-19.664-52.43-19.664-28.859 0-54.12 15.341-68.113 38.305-3.108 5.1-8.545 8.238-14.503 8.651-12.762.885-25.264 6.235-34.964 16.048-15.659 15.842-19.622 38.854-11.957 58.328 2.535 6.441 1.009 13.708-3.624 18.852-.029.032-.057.063-.085.095-26.885 29.954-24.396 76.031 5.558 102.915 10.127 9.089 22.097 14.819 34.544 17.266 6.359 1.25 11.673 5.735 13.714 11.885 7.893 23.785 30.31 40.944 56.745 40.944 18.688 0 35.369-8.575 46.332-22.004 5.398-6.612 14.551-8.571 22.247-4.88 7.669 3.679 16.348 5.586 25.512 5.186 27.678-1.208 50.089-23.758 51.148-51.442.151-3.937-.127-7.783-.787-11.496-1.391-7.818 2.446-15.65 9.504-19.289 7.034-3.628 13.006-9.464 16.759-17.116 4.06-8.279 4.849-17.309 2.872-25.63-1.723-7.252 1.173-14.936 7.296-19.186 1.39-.965 2.74-2.025 4.041-3.181 15.852-14.088 18.655-38.196 6.468-55.553z" fill="#e9efff"></path></g><g><path d="m172.126 463.869c-2.041-6.151-7.356-10.635-13.714-11.885-12.448-2.447-24.418-8.177-34.544-17.266-29.954-26.885-32.442-72.961-5.558-102.915.028-.032.057-.063.085-.095 4.633-5.143 6.159-12.41 3.624-18.852-7.665-19.474-3.702-42.486 11.957-58.328 9.7-9.814 22.203-15.163 34.964-16.048 5.958-.413 11.395-3.551 14.503-8.651 5.681-9.323 13.219-17.39 22.101-23.683-12.999-9.201-28.862-14.622-45.999-14.622-28.859 0-54.12 15.341-68.113 38.305-3.108 5.1-8.545 8.238-14.503 8.651-12.762.885-25.264 6.235-34.964 16.048-15.659 15.842-19.622 38.854-11.957 58.328 2.535 6.441 1.009 13.708-3.624 18.852-.029.032-.057.063-.085.095-26.885 29.954-24.396 76.031 5.558 102.915 10.127 9.089 22.097 14.819 34.544 17.266 6.359 1.25 11.673 5.735 13.714 11.885 7.893 23.785 30.31 40.944 56.745 40.944 18.509 0 35.041-8.419 46.007-21.627-4.693-5.657-8.374-12.186-10.741-19.317z" fill="#dae2fe"></path></g><g><circle cx="228.385" cy="119.865" fill="#e9efff" r="36.258"></circle></g><g><path d="m223.847 119.865c0-14.336 8.322-26.726 20.398-32.61-4.791-2.335-10.172-3.648-15.86-3.648-20.024 0-36.258 16.233-36.258 36.258s16.233 36.258 36.258 36.258c5.688 0 11.069-1.313 15.86-3.648-12.076-5.883-20.398-18.273-20.398-32.61z" fill="#dae2fe"></path></g><g><path d="m451.269 375.061c-1.712 0-3.404.083-5.073.244-4.066.391-8.004-1.324-10.785-4.316-8.174-8.795-20.032-14.117-33.121-13.506-21.621 1.01-39.227 18.522-40.348 40.137-.285 5.49.476 10.765 2.099 15.646 1.436 4.318.403 9.088-2.556 12.545-7.733 9.034-12.164 20.977-11.41 33.966 1.396 24.073 20.888 43.561 44.961 44.954 16.442.951 31.208-6.404 40.513-18.253 2.667-3.396 6.889-5.201 11.19-4.832 1.493.128 3.004.194 4.53.194 29.486 0 53.389-23.903 53.389-53.389 0-29.487-23.903-53.39-53.389-53.39z" fill="#e9efff"></path></g><g><path d="m406.213 459.776c-.753-12.988 3.677-24.932 11.41-33.966 2.959-3.457 3.992-8.226 2.556-12.545-1.623-4.882-2.384-10.157-2.099-15.646.607-11.705 6.055-22.2 14.35-29.529-7.954-7.041-18.563-11.148-30.141-10.608-21.621 1.01-39.227 18.522-40.348 40.137-.285 5.49.476 10.765 2.099 15.646 1.436 4.318.403 9.088-2.556 12.545-7.733 9.034-12.164 20.977-11.41 33.966 1.396 24.073 20.888 43.561 44.961 44.954 11.59.67 22.337-2.799 30.936-9.048-11.286-8.204-18.904-21.194-19.758-35.906z" fill="#dae2fe"></path></g><g><circle cx="439.491" cy="275.749" fill="#e9efff" r="43.333"></circle></g><g><path d="m433.129 275.749c0-17.319 10.163-32.259 24.848-39.196-5.608-2.649-11.872-4.137-18.486-4.137-23.932 0-43.333 19.401-43.333 43.333s19.401 43.333 43.333 43.333c6.614 0 12.878-1.488 18.486-4.137-14.685-6.938-24.848-21.878-24.848-39.196z" fill="#dae2fe"></path></g><g><path d="m88.903 395.6c0 13.018 9.97 23.701 22.69 24.844-8.956-13.64-12.899-29.713-11.699-45.528-6.631 4.486-10.991 12.076-10.991 20.684z" fill="#e9efff"></path></g></g><g><path d="m13.185 91.906c-5.886 12.59-6.415 26.679-1.49 39.673 7.686 20.278 27.039 32.937 47.691 32.937 5.056 0 10.189-.759 15.248-2.35 12.437-3.911 22.797-12.301 29.172-23.625 1.036-1.841 2.908-2.954 4.907-2.878 17.645.582 34.313-5.937 46.916-18.352 24.063-23.706 25.433-62.159 3.118-87.542-17.283-19.659-44.406-26.761-69.102-18.092-1.751.616-3.625.342-5.01-.731-10.274-7.951-23.106-11.785-36.139-10.79-26.259 2.002-47.014 23.37-48.277 49.703-.633 13.207 3.672 26.048 12.121 36.157 1.402 1.677 1.733 3.989.845 5.89zm2.017-41.328c.901-18.791 15.705-34.037 34.435-35.465.969-.074 1.936-.111 2.899-.111 8.306 0 16.351 2.723 22.917 7.806 5.424 4.2 12.588 5.33 19.16 3.023 18.893-6.633 39.645-1.199 52.868 13.842 17.067 19.414 16.022 48.823-2.38 66.952-9.646 9.502-22.41 14.494-35.895 14.045-7.595-.241-14.681 3.778-18.472 10.512-4.498 7.989-11.814 13.911-20.601 16.674-18.15 5.708-37.659-3.776-44.413-21.595-3.476-9.171-3.103-19.117 1.052-28.004 3.344-7.154 2.197-15.735-2.924-21.861-6.027-7.212-9.098-16.382-8.646-25.818z"></path><path d="m302.366 90.533c-9.2 18.474-10.638 39.483-4.047 59.159 3.896 11.634 10.645 22.301 19.517 30.848 2.983 2.875 7.731 2.784 10.604-.198 2.874-2.983 2.785-7.731-.198-10.605-7.139-6.877-12.567-15.456-15.7-24.809-5.317-15.877-4.163-32.82 3.252-47.708 3.244-6.515 2.512-14.39-1.864-20.063-8.393-10.879-10.368-25.539-5.156-38.26 7.55-18.431 28.337-28.137 47.326-22.094 4.874 1.551 9.303 3.984 13.164 7.234 7.149 6.018 17.884 5.763 24.968-.593 6.068-5.445 13.904-8.444 22.064-8.444 11.396 0 21.846 5.761 27.957 15.412 3.116 4.922 8.159 8.091 13.837 8.696 4.548.484 9.002 1.687 13.239 3.574 19.555 8.715 29.993 30.821 24.281 51.42-2.412 8.694-7.305 16.297-14.149 21.99-6.43 5.347-8.656 14.364-5.415 21.927 2.354 5.497 3.176 11.583 2.375 17.6-2.188 16.451-16.354 28.875-32.951 28.9h-.052c-7.004 0-13.69-2.116-19.339-6.12-6.37-4.515-14.747-4.759-21.341-.619-6.764 4.246-14.234 7.125-22.203 8.559-9.866 1.776-20.153 1.095-29.75-1.968-3.949-1.262-8.166.918-9.426 4.865-1.259 3.946.92 8.166 4.865 9.425 7.586 2.42 15.519 3.642 23.447 3.642 4.53 0 9.06-.399 13.52-1.202 9.866-1.775 19.125-5.347 27.521-10.618 1.422-.891 3.308-.829 4.692.152 8.198 5.812 17.883 8.883 28.012 8.882h.074c24.076-.036 44.625-18.059 47.799-41.922 1.157-8.694-.038-17.506-3.457-25.486-.646-1.507-.145-3.353 1.22-4.487 9.204-7.655 15.778-17.86 19.012-29.513 7.681-27.697-6.347-57.417-32.63-69.13-5.673-2.528-11.647-4.139-17.758-4.789-1.08-.115-2.108-.79-2.751-1.805-8.876-14.016-24.064-22.385-40.629-22.385-11.862 0-23.256 4.361-32.082 12.279-1.552 1.392-3.827 1.513-5.292.281-5.371-4.521-11.52-7.902-18.273-10.051-26.379-8.394-55.264 5.091-65.756 30.701-7.234 17.656-4.49 38.006 7.16 53.109.89 1.154 1.013 2.808.313 4.214z"></path><path d="m334.391 275.911c-7.474-10.644-18.602-17.838-31.331-20.258-3.49-.664-6.38-3.211-7.729-6.813-5.691-15.199-16.828-27.546-31.359-34.766-11.84-5.883-24.993-7.935-38.033-5.934-3.272.503-6.562-.446-9.029-2.601-15.882-13.875-36.254-21.517-57.364-21.517-30.674 0-58.531 15.665-74.518 41.903-1.782 2.925-5.004 4.821-8.617 5.072-15.046 1.043-29.173 7.528-39.78 18.258-17.255 17.458-22.594 43.5-13.602 66.348 1.457 3.701.607 7.949-2.198 11.063l-.114.126c-14.34 15.978-21.6 36.584-20.442 58.023s10.595 41.144 26.573 55.484c10.782 9.677 23.959 16.262 38.107 19.044 3.799.747 6.881 3.386 8.042 6.888 1.338 4.032 3.072 7.958 5.155 11.671 2.027 3.613 6.597 4.898 10.21 2.872 3.612-2.026 4.898-6.598 2.872-10.21-1.616-2.881-2.962-5.928-4-9.057-2.862-8.625-10.291-15.094-19.386-16.882-11.498-2.261-22.21-7.617-30.981-15.489-12.997-11.665-20.672-27.691-21.614-45.129-.941-17.438 4.964-34.199 16.628-47.195l-5.582-5.01 5.658 4.925c6.656-7.39 8.584-17.589 5.03-26.618-6.819-17.325-2.772-37.072 10.312-50.309 8.039-8.133 18.747-13.048 30.15-13.839 8.458-.587 16.079-5.159 20.388-12.231 13.242-21.733 36.31-34.708 61.708-34.708 17.48 0 34.347 6.326 47.496 17.813 5.805 5.071 13.524 7.306 21.174 6.13 9.968-1.529 20.024.04 29.082 4.541 11.114 5.522 19.634 14.967 23.987 26.593 3.2 8.549 10.293 14.638 18.974 16.29 8.875 1.688 16.638 6.71 21.857 14.142 9.919 14.128 7.585 34.174-5.315 45.639-1.059.942-2.18 1.825-3.333 2.625-8.602 5.97-12.747 16.853-10.316 27.082 1.64 6.899.819 14.212-2.31 20.593-2.924 5.964-7.579 10.719-13.462 13.753-10.028 5.171-15.434 16.13-13.45 27.268.576 3.24.804 6.57.677 9.896-.909 23.769-20.228 43.199-43.981 44.236-7.693.332-15.077-1.163-21.94-4.455-10.862-5.211-23.731-2.372-31.301 6.898-9.986 12.232-24.756 19.247-40.523 19.247-9.463 0-18.73-2.553-26.798-7.382-3.555-2.127-8.159-.971-10.287 2.583-2.127 3.554-.971 8.16 2.583 10.287 10.396 6.223 22.327 9.512 34.502 9.512 20.291 0 39.296-9.025 52.142-24.761 3.174-3.889 8.598-5.065 13.194-2.86 8.983 4.309 19.038 6.353 29.083 5.916 31.495-1.374 57.11-27.135 58.315-58.648.168-4.396-.134-8.802-.897-13.097-.823-4.625 1.41-9.17 5.558-11.309 8.768-4.521 15.702-11.604 20.056-20.48 4.657-9.499 5.877-20.389 3.435-30.666-1.016-4.273.702-8.81 4.274-11.289 1.645-1.141 3.242-2.399 4.748-3.738 18.811-16.72 22.089-44.866 7.622-65.47z"></path><path d="m228.385 163.623c24.128 0 43.757-19.629 43.757-43.757s-19.629-43.758-43.757-43.758-43.758 19.63-43.758 43.758 19.63 43.757 43.758 43.757zm0-72.515c15.857 0 28.757 12.901 28.757 28.758s-12.9 28.757-28.757 28.757-28.758-12.9-28.758-28.757 12.901-28.758 28.758-28.758z"></path><path d="m451.268 367.561c-1.922 0-3.87.093-5.791.278-1.587.153-3.292-.58-4.573-1.957-10.027-10.787-24.225-16.589-38.965-15.891-25.316 1.182-46.176 21.933-47.488 47.239-.327 6.296.505 12.487 2.473 18.401.587 1.766.151 3.797-1.137 5.302-9.348 10.919-14.035 24.868-13.2 39.278 1.626 28.028 23.987 50.386 52.015 52.006 1.074.062 2.143.093 3.211.093 16.97 0 33.096-7.78 43.636-21.202 1.102-1.402 2.844-2.139 4.648-1.992 1.711.147 3.451.222 5.172.222 33.574 0 60.89-27.315 60.89-60.889s-27.317-60.888-60.891-60.888zm0 106.778c-1.293 0-2.601-.056-3.888-.167-6.88-.588-13.497 2.279-17.73 7.673-8.172 10.407-20.932 16.158-34.183 15.398-20.425-1.181-36.722-17.475-37.906-37.9-.609-10.519 2.807-20.695 9.62-28.654 4.689-5.478 6.213-13.06 3.976-19.791-1.375-4.133-1.955-8.47-1.726-12.89.918-17.697 15.504-32.207 33.207-33.034.552-.026 1.103-.039 1.651-.039 9.723 0 18.985 4.014 25.628 11.159 4.506 4.849 10.707 7.284 16.993 6.676 1.445-.139 2.911-.209 4.357-.209 25.304 0 45.89 20.585 45.89 45.889s-20.585 45.889-45.889 45.889z"></path><path d="m439.491 224.916c-28.029 0-50.833 22.804-50.833 50.833 0 28.03 22.804 50.833 50.833 50.833 28.03 0 50.834-22.804 50.834-50.833 0-28.03-22.804-50.833-50.834-50.833zm0 86.666c-19.759 0-35.833-16.075-35.833-35.833s16.074-35.833 35.833-35.833 35.834 16.075 35.834 35.833-16.075 35.833-35.834 35.833z"></path></g></g></svg>